<svg
  xmlns="http://www.w3.org/2000/svg"
  x="0"
  y="0"
	width="256.1"
  height="76.9"
  viewBox="0 0 256.1 76.9"
  style="enable-background:new 0 0 256.1 76.9;"
  xml:space="preserve"
>
  <g fill="#142F6E">
    <path d="M11.5 69.4c-.1 1.1-.3 1.9-.6 2.6-.7 1.7-1.9 2.6-3.6 2.6-1.5 0-2.6-.6-3.4-1.9-.9-1.4-1.4-3.3-1.4-5.5 0-2.1.4-3.9 1.3-5.3.8-1.4 2-2.1 3.5-2.1 1.3 0 2.3.5 3.1 1.5.5.6.8 1.4.9 2.3v.1h2.5v-.1c-.1-1.2-.5-2.4-1.3-3.4-1.2-1.7-2.9-2.5-5.1-2.5-2.3 0-4.2 1-5.5 2.9-1.2 1.7-1.9 4-1.9 6.7 0 2.8.6 5.1 1.9 6.9 1.2 1.7 3 2.6 5.4 2.6s4.2-1 5.4-3c.7-1.2 1.2-2.6 1.3-4.3v-.1h-2.5zM27.9 59c-1.1-.9-2.5-1.3-3.9-1.3-2.2 0-4.1.9-5.5 2.6s-2.1 4-2.1 6.9c0 3.5 1 6.1 3 7.9 1.2 1.1 2.7 1.7 4.5 1.7 1.2 0 2.3-.3 3.3-.8 1-.6 1.9-1.4 2.5-2.4 1.1-1.7 1.6-3.8 1.6-6.3 0-1.6-.2-3-.7-4.3-.5-1.6-1.5-3-2.7-4zm.4 11.9c-.4 1.3-1.1 2.3-1.9 2.9-.7.6-1.6.8-2.4.8-.7 0-1.3-.2-1.9-.5-.8-.4-1.4-1-1.9-1.8-.8-1.4-1.2-3.1-1.2-5.2 0-2.2.5-4 1.4-5.4.9-1.3 2-1.9 3.4-1.9 1.5 0 2.7.7 3.6 2 .9 1.4 1.4 3.2 1.4 5.4 0 1.4-.2 2.6-.5 3.7zM45 72.5l-7.7-14.2v-.2h-2.5v18.3H37V62.3l7.6 14v.1h2.6V58.1H45zM59.3 66.8c-.3-.1-1-.4-2.1-.8-1.3-.4-2.1-.7-2.6-1-.9-.6-1.3-1.3-1.3-2.2 0-.8.3-1.5.8-2s1.2-.7 2.1-.7c1.2 0 2.1.4 2.7 1.3.3.5.5 1.1.6 1.9v.1H62v-.1c-.1-.7-.1-1.2-.3-1.6-.3-1.1-1-1.9-1.9-2.6-1-.7-2.2-1.1-3.6-1.1-1.7 0-3 .5-4 1.5-.9.9-1.4 2.1-1.4 3.5s.5 2.6 1.5 3.5c.7.6 1.9 1.2 3.5 1.7s2.5.9 2.9 1.2c.9.6 1.3 1.4 1.3 2.4 0 .8-.2 1.4-.7 2-.6.7-1.5 1.1-2.7 1.1-1.4 0-2.5-.5-3.1-1.6-.3-.6-.6-1.4-.6-2.4v-.1h-2.4v.1c.1 1.3.4 2.5.9 3.3 1.1 1.9 2.9 2.8 5.3 2.8 1.8 0 3.2-.5 4.3-1.6 1-1 1.6-2.3 1.6-3.8-.1-2.4-1.2-3.8-3.3-4.8zM75.7 68.4c0 2-.1 3.3-.4 4.1-.5 1.5-1.6 2.2-3.3 2.2-1 0-1.9-.2-2.5-.7-.7-.6-1.2-1.5-1.4-2.9-.1-.5-.1-1.4-.1-2.6V58.1h-2.4v10.3c0 1.7.1 3 .3 3.9.4 1.5 1.1 2.7 2.1 3.5 1 .7 2.3 1.1 4 1.1 3 0 5-1.5 5.8-4.5.2-.8.3-2.1.3-3.9V58.1h-2.4v10.3zM84.5 58.1H82v18.3h10.3v-2.2h-7.8zM91.5 60.4h5v16H99v-16h5v-2.3H91.5zM106.8 58.1h2.4v18.2h-2.4zM123.6 72.5L116 58.3l-.1-.2h-2.5v18.3h2.3V62.3l7.5 14 .1.1h2.5V58.1h-2.2zM136.5 68.8h4.7c-.1 2-.6 3.6-1.5 4.6-.8.9-1.8 1.3-3 1.3-1.5 0-2.7-.6-3.6-1.9-.9-1.4-1.4-3.2-1.4-5.5 0-2.1.4-3.9 1.2-5.2.9-1.5 2.2-2.2 3.8-2.2 1.5 0 2.6.6 3.4 1.9.4.6.6 1.3.7 2.1v.1h2.4v-.1c-.1-1.2-.5-2.3-1-3.2-1.2-1.9-3-2.9-5.5-2.9-2 0-3.7.7-4.9 2-1.7 1.9-2.6 4.4-2.6 7.6 0 1.7.3 3.3.9 4.8.4 1 1 2 1.8 2.8 1.2 1.2 2.8 1.9 4.7 1.9 2 0 3.6-.8 4.8-2.5v2h2.1v-9.7h-7v2.1zM28.3 5.9c-3.4-3.2-8.1-4.8-14.1-4.8H.7V45h13.5c2.7 0 5-.2 7-.7 2.8-.7 5.3-2.1 7.4-4.3 3.9-4 5.9-9.7 5.9-17 .1-7.6-2-13.3-6.2-17.1zm-6.7 28.6c-1.5 1.6-4 2.4-7.3 2.4h-4.2V9h4c3.7 0 6.4 1.1 8.1 3.3 2 2.5 3 6 3 10.4-.1 5.5-1.2 9.3-3.6 11.8zM67.6 36.9h-19V26.2h17v-7.7h-17V9h18.6V1.1h-28V45h28.4zM82.4 45h9.4V9h10.7V1.1H71.7V9h10.7zM135.5 36.9h-19V26.2h17v-7.7h-17V9h18.6V1.1h-28V45h28.4zM163.4 35.5c-1.2 1.6-3 2.5-5.2 2.5-2.8 0-5-1.3-6.5-4-1.7-2.9-2.5-6.6-2.5-10.9s.8-7.9 2.4-10.8c1.5-2.8 3.8-4.1 6.7-4.1 2.6 0 4.6 1.2 6 3.6.6 1.1 1.1 2.5 1.4 4.2h9.3c-.2-3.2-1.3-6.2-3.1-8.8-3.2-4.6-7.7-6.9-13.5-6.9-5.4 0-9.8 2-13.1 6-3.7 4.4-5.5 10.1-5.5 17 0 7.1 1.9 12.9 5.7 17.4 3.1 3.7 7.4 5.5 12.7 5.5 5.6 0 10-2.1 13.1-6.4 2.3-3.1 3.6-7 3.9-11.7h-9.4c-.4 3.3-1.2 5.8-2.4 7.4zM199.2.1c-5.4 0-9.8 2-13.3 5.9-3.7 4.2-5.5 9.7-5.5 16.7 0 6.4 1.4 11.7 4.2 15.8 3.5 5 8.4 7.6 14.6 7.6 2.9 0 5.4-.6 7.8-1.7 2.6-1.3 4.8-3.2 6.5-5.7 2.9-4.2 4.3-9.4 4.3-15.6 0-7.3-1.9-13-5.8-17.3C208.7 2 204.4.1 199.2.1zm6.5 34.1c-.7 1.2-1.6 2.1-2.8 2.8-1.1.7-2.4 1-3.6 1-1.4 0-2.7-.4-3.9-1.1-1.3-.8-2.3-1.7-3-3-1.7-2.9-2.5-6.6-2.5-11.1 0-4.1.9-7.6 2.6-10.6 1.6-2.7 3.8-4.1 6.8-4.1 2.9 0 5.2 1.4 6.8 4.1 1.7 2.9 2.5 6.5 2.5 10.7-.2 4.5-1.1 8.3-2.9 11.3zM247 1.1v28.1L233.3 1.1h-9.6V45h9.1V16.8L246.6 45h9.5V1.1z"/>
  </g>
</svg>
